<mxfile host="app.diagrams.net" modified="2023-04-24T09:10:15.789Z" agent="Mozilla/5.0 (Windows NT 10.0; Win64; x64) AppleWebKit/537.36 (KHTML, like Gecko) Chrome/100.0.4896.127 Safari/537.36" version="21.2.1" etag="1Yn0jvVP7iNS1B9IElpO" type="github">
  <diagram name="第 1 页" id="_Wt_-vo8CyMdxCxSU3ZC">
    <mxGraphModel>
      <root>
        <mxCell id="0" />
        <mxCell id="1" parent="0" />
      </root>
    </mxGraphModel>
  </diagram>
</mxfile>
